<svg fill="none" xmlns="https://www.w3.org/2000/svg" viewBox="0 0 16 16"><g clip-path="url(#a)"><path fill-rule="evenodd" clip-rule="evenodd" d="M10.27 14.1a6.5 6.5 0 0 0 3.67-3.45q-1.24.21-2.7.34-.31 1.83-.97 3.1M8 16A8 8 0 0 1 0 8a8 8 0 0 1 8-8 8 8 0 0 1 8 8 8 8 0 0 1-8 8m-1.5-2.5a6.5 6.5 0 0 0 3.67-3.45q-1.24.21-2.7.34-.31 1.83-.97 3.1M8 14A6 6 0 0 1 2 8a6 6 0 0 1 6-6 6 6 0 0 1 6 6 6 6 0 0 1-6 6m-1.5-2.5a6.5 6.5 0 0 0 3.67-3.45q-1.24.21-2.7.34-.31 1.83-.97 3.1M8 12A4 4 0 0 1 4 8a4 4 0 0 1 4-4 4 4 0 0 1 4 4 4 4 0 0 1-4 4m-1.5-2.5a6.5 6.5 0 0 0 3.67-3.45q-1.24.21-2.7.34-.31 1.83-.97 3.1M8 10A2 2 0 0 1 6 8a2 2 0 0 1 2-2 2 2 0 0 1 2 2 2 2 0 0 1-2 2m-1.5-2.5a6.5 6.5 0 0 0 3.67-3.45q-1.24.21-2.7.34-.31 1.83-.97 3.1M8 8a6.5 6.5 0 0 0-3.67-3.45q1.24.21 2.7.34.31 1.83.97 3.1M8 6a6.5 6.5 0 0 0-3.67-3.45q1.24.21 2.7.34.31 1.83.97 3.1M8 4a6.5 6.5 0 0 0-3.67-3.45q1.24.21 2.7.34.31 1.83.97 3.1M8 2a6.5 6.5 0 0 0-3.67-3.45q1.24.21 2.7.34.31 1.83.97 3.1M8 0a6.5 6.5 0 0 0-3.67-3.45q1.24.21 2.7.34.31 1.83.97 3.1"/></g><defs><clipPath id="a"><path fill="#fff" d="M0 0h16v16H0z"/></clipPath></defs></svg>